# xmcd
#
# Track frame offsets:
#	150
#	21440
#	39965
#	58818
#	81163
#	104183
#	120908
#	143458
#	165385
#	186635
#
# Disc length: 2777 seconds
#
# Revision: 2
# Processed by: cddbd v1.5.2PL0 Copyright (c) Steve Scherf et al.
# Submitted via: EZCDAudioConverter 8.0.2.1
#
DISCID=840ad70a
DTITLE=Lưu Bích, Tô Chấn Phong - Mối Tình Đầu
DYEAR=1994
DGENRE=Pop
TTITLE0=Lưu Bích - Đêm nay em thấy cô đơn
TTITLE1=Tô Chấn Phong - Những buổi chiều vàng
TTITLE2=Lưu Bích, Tô Chấn Phong - Mãi yêu
TTITLE3=Lưu Bích - Chuyện tình không suy tư
TTITLE4=Tô Chấn Phong - Tình nồng
TTITLE5=Lưu Bích - Vòng tay người ấy
TTITLE6=Tô Chấn Phong - Rồi mai tôi đưa em
TTITLE7=Lưu Bích - Nếu vắng anh
TTITLE8=Lưu Bích, Tô Chấn Phong - Phù du
TTITLE9=Lưu Bích - Yêu em lầm lỡ
EXTD=
EXTT0=
EXTT1=
EXTT2=
EXTT3=
EXTT4=
EXTT5=
EXTT6=
EXTT7=
EXTT8=
EXTT9=
PLAYORDER=
